<?xml version="1.0" encoding="utf-8"?>
<!-- Generator: Adobe Illustrator 21.1.0, SVG Export Plug-In . SVG Version: 6.00 Build 0)  -->
<!DOCTYPE svg PUBLIC "-//W3C//DTD SVG 1.1//EN" "http://www.w3.org/Graphics/SVG/1.1/DTD/svg11.dtd" [
	<!ENTITY ns_extend "http://ns.adobe.com/Extensibility/1.0/">
	<!ENTITY ns_ai "http://ns.adobe.com/AdobeIllustrator/10.0/">
	<!ENTITY ns_graphs "http://ns.adobe.com/Graphs/1.0/">
	<!ENTITY ns_vars "http://ns.adobe.com/Variables/1.0/">
	<!ENTITY ns_imrep "http://ns.adobe.com/ImageReplacement/1.0/">
	<!ENTITY ns_sfw "http://ns.adobe.com/SaveForWeb/1.0/">
	<!ENTITY ns_custom "http://ns.adobe.com/GenericCustomNamespace/1.0/">
	<!ENTITY ns_adobe_xpath "http://ns.adobe.com/XPath/1.0/">
]>
<svg version="1.1" id="Layer_3" xmlns:x="&ns_extend;" xmlns:i="&ns_ai;" xmlns:graph="&ns_graphs;"
	 xmlns="http://www.w3.org/2000/svg" xmlns:xlink="http://www.w3.org/1999/xlink" x="0px" y="0px" viewBox="0 0 350 155"
	 style="enable-background:new 0 0 350 155;" xml:space="preserve">
<style type="text/css">
	.st0{fill:url(#SVGID_1_);}
	.st1{fill:url(#SVGID_2_);}
	.st2{fill:url(#SVGID_3_);}
	.st3{fill:#FFFFFF;}
	.st4{font-family:'Roboto-Regular';}
	.st5{font-size:17px;}
	.st6{letter-spacing:3;}
	.st7{fill:#0DF9FF;}
	.st8{fill:none;stroke:#0DF9FF;stroke-miterlimit:10;}
</style>
<switch>
	<g i:extraneous="self">
		<g>
			<g>
				<g>
					<g>
						<linearGradient id="SVGID_1_" gradientUnits="userSpaceOnUse" x1="206.3709" y1="118.8609" x2="280.2765" y2="26.9783">
							<stop  offset="0" style="stop-color:#00ADDC"/>
							<stop  offset="8.369088e-02" style="stop-color:#0EB7E0"/>
							<stop  offset="0.3637" style="stop-color:#36D4EE"/>
							<stop  offset="0.6195" style="stop-color:#53EAF7"/>
							<stop  offset="0.84" style="stop-color:#65F6FD"/>
							<stop  offset="1" style="stop-color:#6BFBFF"/>
						</linearGradient>
						<polygon class="st0" points="239.8,77.6 238.4,76.2 248.9,65.7 250.3,67.1 						"/>
					</g>
					<g>
						<linearGradient id="SVGID_2_" gradientUnits="userSpaceOnUse" x1="202.6523" y1="115.8698" x2="276.5579" y2="23.9872">
							<stop  offset="0" style="stop-color:#00ADDC"/>
							<stop  offset="8.369088e-02" style="stop-color:#0EB7E0"/>
							<stop  offset="0.3637" style="stop-color:#36D4EE"/>
							<stop  offset="0.6195" style="stop-color:#53EAF7"/>
							<stop  offset="0.84" style="stop-color:#65F6FD"/>
							<stop  offset="1" style="stop-color:#6BFBFF"/>
						</linearGradient>
						<polygon class="st1" points="238.9,77.1 233.1,71.4 234.5,70 240.3,75.7 						"/>
					</g>
					<g>
						<linearGradient id="SVGID_3_" gradientUnits="userSpaceOnUse" x1="203.8843" y1="116.8608" x2="277.7899" y2="24.9782">
							<stop  offset="0" style="stop-color:#00ADDC"/>
							<stop  offset="8.369088e-02" style="stop-color:#0EB7E0"/>
							<stop  offset="0.3637" style="stop-color:#36D4EE"/>
							<stop  offset="0.6195" style="stop-color:#53EAF7"/>
							<stop  offset="0.84" style="stop-color:#65F6FD"/>
							<stop  offset="1" style="stop-color:#6BFBFF"/>
						</linearGradient>
						<path class="st2" d="M240.1,93.8c-12.1,0-22-9.9-22-22c0-12.1,9.9-22,22-22c2.4,0,4.8,0.4,7.1,1.2l-0.6,1.9
							c-2.1-0.7-4.2-1.1-6.5-1.1c-11,0-20,9-20,20s9,20,20,20s20-9,20-20c0-2-0.3-3.9-0.9-5.8l1.9-0.6c0.6,2.1,0.9,4.2,0.9,6.4
							C262.1,83.9,252.3,93.8,240.1,93.8z"/>
					</g>
				</g>
			</g>
			<g>
				<g>
					<polyline class="st8" points="99.9,86.7 99.9,105.2 328,105.2 					"/>
					<g>
						<circle class="st7" cx="327.8" cy="105.2" r="3.8"/>
					</g>
				</g>
			</g>
		</g>
	</g>
</switch>
</svg>
