<?xml version="1.0" encoding="utf-8"?>
<!-- Generator: Adobe Illustrator 21.1.0, SVG Export Plug-In . SVG Version: 6.00 Build 0)  -->
<!DOCTYPE svg PUBLIC "-//W3C//DTD SVG 1.1//EN" "http://www.w3.org/Graphics/SVG/1.1/DTD/svg11.dtd" [
	<!ENTITY ns_extend "http://ns.adobe.com/Extensibility/1.0/">
	<!ENTITY ns_ai "http://ns.adobe.com/AdobeIllustrator/10.0/">
	<!ENTITY ns_graphs "http://ns.adobe.com/Graphs/1.0/">
	<!ENTITY ns_vars "http://ns.adobe.com/Variables/1.0/">
	<!ENTITY ns_imrep "http://ns.adobe.com/ImageReplacement/1.0/">
	<!ENTITY ns_sfw "http://ns.adobe.com/SaveForWeb/1.0/">
	<!ENTITY ns_custom "http://ns.adobe.com/GenericCustomNamespace/1.0/">
	<!ENTITY ns_adobe_xpath "http://ns.adobe.com/XPath/1.0/">
]>
<svg version="1.1" id="Layer_1" xmlns:x="&ns_extend;" xmlns:i="&ns_ai;" xmlns:graph="&ns_graphs;"
	 xmlns="http://www.w3.org/2000/svg" xmlns:xlink="http://www.w3.org/1999/xlink" x="0px" y="0px" viewBox="0 0 82 82"
	 style="enable-background:new 0 0 82 82;" xml:space="preserve">
<style type="text/css">
	.st0{fill:#FFFFFF;}
	.st1{fill:none;stroke:url(#SVGID_1_);stroke-miterlimit:10;}
</style>
<switch>
	<g i:extraneous="self">
		<g>
			<g>
				<path class="st0" d="M41.1,15.2c-15.5-0.1-28.2,12.4-28.3,28c0,6.9,2.5,13.6,7.1,18.8c0.3,0.4,0.8,0.6,1.3,0.6l39.3,0.2
					c0.5,0,1-0.2,1.3-0.6c4.7-5.1,7.2-11.8,7.3-18.7C69.2,28,56.7,15.3,41.1,15.2z M60.6,61.1l-39.3-0.2c-4.2-4.7-6.7-10.9-6.6-17.6
					c0.1-14.6,12-26.3,26.5-26.2c14.6,0.1,26.3,12,26.2,26.5C67.3,50.3,64.8,56.4,60.6,61.1z M43.5,40.9
					C43.5,40.9,43.5,40.9,43.5,40.9c-2.1-2-8.9-6.2-11.7-8c-0.4-0.2-0.8-0.2-1.1,0.1c-0.3,0.3-0.3,0.8-0.1,1.1
					c1.8,2.8,5.9,9.7,7.8,11.7c0,0,0.1,0.1,0.1,0.1c0.6,0.6,1.5,1,2.4,1c1.9,0,3.5-1.6,3.5-3.5C44.5,42.4,44.1,41.6,43.5,40.9z"/>
				<path class="st0" d="M54.7,56.5l-3.5-5.3c-0.3-0.5-0.9-0.8-1.5-0.8l-17.6-0.1c-0.6,0-1.1,0.3-1.5,0.8l-3.5,5.3
					c-0.4,0.6-0.4,1.2-0.1,1.8s0.9,0.9,1.5,0.9c8.2,0,16.4,0.1,24.6,0.1c0.7,0,1.2-0.3,1.6-0.9C55.1,57.8,55.1,57.1,54.7,56.5z"/>
				<path class="st0" d="M52.9,22.5c-0.1-0.5-0.4-0.9-0.9-1.1c-3.4-1.7-7.1-2.6-10.8-2.6c-3.8,0-7.5,0.8-10.9,2.5
					c-0.5,0.2-0.8,0.6-0.9,1.1c-0.1,0.5,0,1,0.3,1.4l3.1,4.4c0.5,0.7,1.4,0.9,2.1,0.6c2-0.9,4.1-1.3,6.3-1.3c2.2,0,4.3,0.5,6.3,1.3
					c0.8,0.3,1.7,0.1,2.1-0.6l3.1-4.4C52.9,23.5,53,23,52.9,22.5z"/>
				<path class="st0" d="M58.1,25.7c-0.4-0.4-0.9-0.5-1.4-0.5c-0.5,0-1,0.3-1.3,0.7l-3.1,4.4c-0.5,0.7-0.4,1.6,0.2,2.2
					c2.8,3,4.3,6.8,4.3,10.9c0,0.3,0,0.6,0,1c-0.1,0.8,0.5,1.6,1.3,1.8l5.2,1.4c0.5,0.1,1,0.1,1.5-0.2c0.4-0.3,0.7-0.7,0.8-1.3
					c0.1-0.9,0.2-1.8,0.2-2.6C65.6,36.8,63,30.4,58.1,25.7z"/>
				<path class="st0" d="M29.7,30.2l-3-4.4c-0.3-0.4-0.7-0.7-1.3-0.7c-0.5-0.1-1,0.1-1.4,0.5c-4.9,4.6-7.6,11-7.7,17.7
					c0,0.9,0,1.8,0.1,2.6c0.1,0.5,0.3,1,0.7,1.3s0.9,0.4,1.4,0.3l5.2-1.4c0.8-0.2,1.4-1,1.3-1.8c0-0.3,0-0.6,0-1
					c0-4.1,1.6-7.9,4.4-10.9C30.1,31.8,30.2,30.9,29.7,30.2z"/>
				<g id="Layer_1_2_">
				</g>
			</g>
			
				<linearGradient id="SVGID_1_" gradientUnits="userSpaceOnUse" x1="-2.180208e-02" y1="40.8391" x2="80.9782" y2="40.8391" gradientTransform="matrix(0.9999 1.092937e-02 -1.092937e-02 0.9999 0.9706 -0.279)">
				<stop  offset="0" style="stop-color:#00ADDC"/>
				<stop  offset="1" style="stop-color:#6BFBFF"/>
			</linearGradient>
			
				<ellipse transform="matrix(1.092937e-02 -0.9999 0.9999 1.092937e-02 -0.4457 81.5494)" class="st1" cx="41" cy="41" rx="40" ry="40"/>
		</g>
	</g>
</switch>
</svg>
