<?xml version="1.0" encoding="utf-8"?>
<!-- Generator: Adobe Illustrator 21.1.0, SVG Export Plug-In . SVG Version: 6.00 Build 0)  -->
<!DOCTYPE svg PUBLIC "-//W3C//DTD SVG 1.1//EN" "http://www.w3.org/Graphics/SVG/1.1/DTD/svg11.dtd" [
	<!ENTITY ns_extend "http://ns.adobe.com/Extensibility/1.0/">
	<!ENTITY ns_ai "http://ns.adobe.com/AdobeIllustrator/10.0/">
	<!ENTITY ns_graphs "http://ns.adobe.com/Graphs/1.0/">
	<!ENTITY ns_vars "http://ns.adobe.com/Variables/1.0/">
	<!ENTITY ns_imrep "http://ns.adobe.com/ImageReplacement/1.0/">
	<!ENTITY ns_sfw "http://ns.adobe.com/SaveForWeb/1.0/">
	<!ENTITY ns_custom "http://ns.adobe.com/GenericCustomNamespace/1.0/">
	<!ENTITY ns_adobe_xpath "http://ns.adobe.com/XPath/1.0/">
]>
<svg version="1.1" id="Layer_1" xmlns:x="&ns_extend;" xmlns:i="&ns_ai;" xmlns:graph="&ns_graphs;"
	 xmlns="http://www.w3.org/2000/svg" xmlns:xlink="http://www.w3.org/1999/xlink" x="0px" y="0px" viewBox="0 0 44 44"
	 style="enable-background:new 0 0 44 44;" xml:space="preserve">
<style type="text/css">
	.st0{fill:url(#SVGID_1_);}
	.st1{fill:url(#SVGID_2_);}
	.st2{fill:url(#SVGID_3_);}
</style>
<switch>
	<g i:extraneous="self">
		<g>
			<g>
				<linearGradient id="SVGID_1_" gradientUnits="userSpaceOnUse" x1="-11.7622" y1="69.0661" x2="62.1434" y2="-22.8165">
					<stop  offset="0" style="stop-color:#00ADDC"/>
					<stop  offset="8.369088e-02" style="stop-color:#0EB7E0"/>
					<stop  offset="0.3637" style="stop-color:#36D4EE"/>
					<stop  offset="0.6195" style="stop-color:#53EAF7"/>
					<stop  offset="0.84" style="stop-color:#65F6FD"/>
					<stop  offset="1" style="stop-color:#6BFBFF"/>
				</linearGradient>
				<polygon class="st0" points="21.6,27.8 20.2,26.4 30.8,15.9 32.2,17.3 				"/>
			</g>
			<g>
				<linearGradient id="SVGID_2_" gradientUnits="userSpaceOnUse" x1="-15.4808" y1="66.075" x2="58.4248" y2="-25.8076">
					<stop  offset="0" style="stop-color:#00ADDC"/>
					<stop  offset="8.369088e-02" style="stop-color:#0EB7E0"/>
					<stop  offset="0.3637" style="stop-color:#36D4EE"/>
					<stop  offset="0.6195" style="stop-color:#53EAF7"/>
					<stop  offset="0.84" style="stop-color:#65F6FD"/>
					<stop  offset="1" style="stop-color:#6BFBFF"/>
				</linearGradient>
				<polygon class="st1" points="20.7,27.3 15,21.6 16.4,20.2 22.1,25.9 				"/>
			</g>
			<g>
				<linearGradient id="SVGID_3_" gradientUnits="userSpaceOnUse" x1="-14.2488" y1="67.066" x2="59.6568" y2="-24.8166">
					<stop  offset="0" style="stop-color:#00ADDC"/>
					<stop  offset="8.369088e-02" style="stop-color:#0EB7E0"/>
					<stop  offset="0.3637" style="stop-color:#36D4EE"/>
					<stop  offset="0.6195" style="stop-color:#53EAF7"/>
					<stop  offset="0.84" style="stop-color:#65F6FD"/>
					<stop  offset="1" style="stop-color:#6BFBFF"/>
				</linearGradient>
				<path class="st2" d="M22,44C9.9,44,0,34.1,0,22C0,9.9,9.9,0,22,0c2.4,0,4.8,0.4,7.1,1.2L28.5,3C26.4,2.3,24.2,2,22,2
					C11,2,2,11,2,22s9,20,20,20s20-9,20-20c0-2-0.3-3.9-0.9-5.8l1.9-0.6c0.6,2.1,0.9,4.2,0.9,6.4C44,34.1,34.1,44,22,44z"/>
			</g>
		</g>
	</g>
</switch>
</svg>
